# Blender v2.82 (sub 7) OBJ File: 'dino.blend'
# www.blender.org
mtllib bigcactus.mtl
o Sphere_Sphere.001
v -4.733856 -0.240393 2.074104
v -4.664881 0.608956 2.102675
v -4.598557 0.701017 2.036350
v -4.537432 0.665735 1.975226
v -4.483856 0.603553 1.921649
v -4.439887 0.527785 1.877681
v -4.407215 0.441342 1.845009
v -4.387095 0.347545 1.824890
v -4.380302 0.250000 1.818096
v -4.387095 0.152455 1.824890
v -4.407215 0.058658 1.845009
v -4.439887 -0.027785 1.877681
v -4.483856 -0.103553 1.921649
v -4.537432 -0.165735 1.975226
v -4.598557 -0.211940 2.036350
v -4.664881 -0.240393 2.102675
v -4.636311 0.608955 2.171650
v -4.542514 0.701016 2.171650
v -4.456070 0.665735 2.171650
v -4.380302 0.688553 2.171650
v -4.318121 0.527785 2.171650
v -4.271916 0.441342 2.171650
v -4.243463 0.347545 2.171650
v -4.233856 0.250000 2.171650
v -4.243463 0.152455 2.171650
v -4.271916 0.058658 2.171650
v -4.318121 -0.027785 2.171650
v -4.380302 -0.103553 2.171650
v -4.456070 -0.165735 2.171650
v -4.542514 -0.211940 2.171650
v -4.636311 -0.240393 2.171650
v -4.664881 0.608955 2.240625
v -4.598557 0.701016 2.306949
v -4.537432 0.665735 2.368073
v -4.483856 0.603553 2.421650
v -4.439887 0.527785 2.465619
v -4.407215 0.441342 2.498291
v -4.387095 0.347545 2.518410
v -4.380302 0.250000 2.525203
v -4.387095 0.152455 2.518410
v -4.407215 0.058658 2.498291
v -4.439887 -0.027785 2.465619
v -4.483856 -0.103553 2.421650
v -4.537432 -0.165735 2.368073
v -4.598557 -0.211940 2.306949
v -4.664881 -0.240393 2.240624
v -4.733856 0.608955 2.269195
v -4.733856 0.701016 2.362992
v -4.733856 0.665735 2.449435
v -4.733856 0.683553 2.525203
v -4.733856 0.527785 2.587385
v -4.733856 0.441342 2.633590
v -4.733856 0.347545 2.662042
v -4.733856 0.250000 2.671650
v -4.733856 0.152455 2.662042
v -4.733856 0.058658 2.633590
v -4.733856 -0.027785 2.587385
v -4.733856 -0.103553 2.525203
v -4.733856 -0.165735 2.449435
v -4.733856 -0.211940 2.362991
v -4.733856 -0.240393 2.269195
v -4.733856 -0.250000 2.171650
v -4.733856 0.530000 2.171650
v -4.802831 0.608955 2.240625
v -4.869155 0.701016 2.306949
v -4.930280 0.665735 2.368073
v -4.983856 0.603553 2.421650
v -5.027825 0.527785 2.465619
v -5.060497 0.441342 2.498291
v -5.080616 0.347545 2.518410
v -5.087409 0.250000 2.525203
v -5.080616 0.152455 2.518410
v -5.060497 0.058658 2.498291
v -5.027825 -0.027785 2.465619
v -4.983856 -0.103553 2.421650
v -4.930280 -0.165735 2.368073
v -4.869155 -0.211940 2.306949
v -4.802831 -0.240393 2.240624
v -4.831401 0.608955 2.171650
v -4.925198 0.701016 2.171650
v -5.011641 0.665735 2.171650
v -5.087409 0.673553 2.171650
v -5.149590 0.527785 2.171650
v -5.195796 0.441342 2.171650
v -5.224248 0.347545 2.171650
v -5.233856 0.250000 2.171650
v -5.224248 0.152455 2.171650
v -5.195796 0.058658 2.171650
v -5.149590 -0.027785 2.171650
v -5.087409 -0.103553 2.171650
v -5.011641 -0.165735 2.171650
v -4.925198 -0.211940 2.171650
v -4.831401 -0.240393 2.171650
v -4.802831 0.608956 2.102675
v -4.869155 0.701016 2.036350
v -4.930280 0.665735 1.975226
v -4.983856 0.603553 1.921650
v -5.027825 0.527785 1.877681
v -5.060497 0.441342 1.845009
v -5.080616 0.347545 1.824890
v -5.087409 0.250000 1.818096
v -5.080616 0.152455 1.824890
v -5.060497 0.058658 1.845009
v -5.027825 -0.027785 1.877681
v -4.983856 -0.103553 1.921650
v -4.930280 -0.165735 1.975226
v -4.869155 -0.211940 2.036350
v -4.802831 -0.240393 2.102675
v -4.733856 0.608956 2.074104
v -4.733856 0.701017 1.980308
v -4.733856 0.665735 1.893864
v -4.733856 0.663553 1.818096
v -4.733856 0.527785 1.755915
v -4.733856 0.441342 1.709710
v -4.733856 0.347545 1.681257
v -4.733856 0.250000 1.671649
v -4.733856 0.152455 1.681257
v -4.733856 0.058658 1.709710
v -4.733856 -0.027785 1.755915
v -4.733856 -0.103553 1.818096
v -4.733856 -0.165735 1.893864
v -4.733856 -0.211940 1.980308
vt 0.750000 0.250000
vt 0.750000 0.312500
vt 0.625000 0.312500
vt 0.625000 0.250000
vt 0.750000 0.687500
vt 0.750000 0.750000
vt 0.625000 0.750000
vt 0.625000 0.687500
vt 0.750000 0.187500
vt 0.625000 0.187500
vt 0.750000 0.625000
vt 0.625000 0.625000
vt 0.750000 0.125000
vt 0.625000 0.125000
vt 0.750000 0.562500
vt 0.625000 0.562500
vt 0.750000 0.062500
vt 0.625000 0.062500
vt 0.750000 0.500000
vt 0.625000 0.500000
vt 0.687500 0.000000
vt 0.750000 0.437500
vt 0.625000 0.437500
vt 0.750000 0.375000
vt 0.625000 0.375000
vt 0.500000 0.375000
vt 0.500000 0.312500
vt 0.500000 0.250000
vt 0.500000 0.750000
vt 0.500000 0.687500
vt 0.500000 0.187500
vt 0.500000 0.625000
vt 0.500000 0.125000
vt 0.500000 0.562500
vt 0.500000 0.062500
vt 0.500000 0.500000
vt 0.562500 0.000000
vt 0.500000 0.437500
vt 0.375000 0.625000
vt 0.375000 0.562500
vt 0.375000 0.125000
vt 0.375000 0.062500
vt 0.375000 0.500000
vt 0.437500 0.000000
vt 0.375000 0.437500
vt 0.375000 0.375000
vt 0.375000 0.312500
vt 0.375000 0.250000
vt 0.375000 0.750000
vt 0.375000 0.687500
vt 0.375000 0.187500
vt 0.250000 0.375000
vt 0.250000 0.312500
vt 0.250000 0.250000
vt 0.250000 0.750000
vt 0.250000 0.687500
vt 0.250000 0.187500
vt 0.250000 0.625000
vt 0.250000 0.125000
vt 0.250000 0.562500
vt 0.250000 0.062500
vt 0.250000 0.500000
vt 0.312500 0.000000
vt 0.250000 0.437500
vt 0.125000 0.125000
vt 0.125000 0.062500
vt 0.125000 0.562500
vt 0.125000 0.500000
vt 0.187500 0.000000
vt 0.125000 0.437500
vt 0.125000 0.375000
vt 0.125000 0.312500
vt 0.125000 0.250000
vt 0.125000 0.750000
vt 0.125000 0.687500
vt 0.125000 0.187500
vt 0.125000 0.625000
vt 0.000000 0.312500
vt 0.000000 0.250000
vt 0.000000 0.750000
vt 0.000000 0.687500
vt 0.000000 0.187500
vt 0.000000 0.625000
vt 0.000000 0.125000
vt 0.000000 0.562500
vt 0.000000 0.062500
vt 0.000000 0.500000
vt 0.062500 0.000000
vt 0.000000 0.437500
vt 0.000000 0.375000
vt 0.937500 0.000000
vt 1.000000 0.062500
vt 0.875000 0.062500
vt 1.000000 0.437500
vt 1.000000 0.500000
vt 0.875000 0.500000
vt 0.875000 0.437500
vt 1.000000 0.375000
vt 0.875000 0.375000
vt 1.000000 0.312500
vt 0.875000 0.312500
vt 1.000000 0.250000
vt 0.875000 0.250000
vt 1.000000 0.687500
vt 1.000000 0.750000
vt 0.875000 0.750000
vt 0.875000 0.687500
vt 1.000000 0.187500
vt 0.875000 0.187500
vt 1.000000 0.625000
vt 0.875000 0.625000
vt 1.000000 0.125000
vt 0.875000 0.125000
vt 1.000000 0.562500
vt 0.875000 0.562500
vt 0.812500 0.000000
vt 0.750000 0.937500
vt 0.687500 1.000000
vt 0.625000 0.937500
vt 0.750000 0.875000
vt 0.625000 0.875000
vt 0.750000 0.812500
vt 0.625000 0.812500
vt 0.500000 0.875000
vt 0.500000 0.812500
vt 0.562499 1.000000
vt 0.500000 0.937500
vt 0.437499 1.000000
vt 0.375000 0.937500
vt 0.375000 0.875000
vt 0.375000 0.812500
vt 0.250000 0.812500
vt 0.312500 1.000000
vt 0.250000 0.937500
vt 0.250000 0.875000
vt 0.187500 1.000000
vt 0.125000 0.937500
vt 0.125000 0.875000
vt 0.125000 0.812500
vt 0.062500 1.000000
vt 0.000000 0.937500
vt 0.000000 0.875000
vt 0.000000 0.812500
vt 1.000000 0.937500
vt 0.937500 1.000000
vt 0.875000 0.937500
vt 1.000000 0.875000
vt 0.875000 0.875000
vt 1.000000 0.812500
vt 0.875000 0.812500
vt 0.812500 1.000000
vn 0.3049 -0.6042 -0.7362
vn 0.3808 0.4767 -0.7923
vn 0.2541 -0.7476 -0.6136
vn 0.3431 0.4428 -0.8284
vn 0.1916 -0.8656 -0.4627
vn 0.3685 0.2699 -0.8896
vn 0.1194 -0.9501 -0.2882
vn 0.3811 0.0906 -0.9201
vn 0.0406 -0.9944 -0.0979
vn 0.3811 -0.0906 -0.9201
vn 0.3685 -0.2699 -0.8896
vn 0.3431 -0.4428 -0.8284
vn 0.8284 -0.4428 -0.3431
vn 0.7362 -0.6042 -0.3049
vn 0.8053 0.4361 -0.4017
vn 0.6136 -0.7476 -0.2541
vn 0.8284 0.4428 -0.3431
vn 0.4627 -0.8656 -0.1916
vn 0.8896 0.2699 -0.3685
vn 0.2882 -0.9501 -0.1194
vn 0.9201 0.0906 -0.3811
vn 0.0979 -0.9944 -0.0406
vn 0.9201 -0.0906 -0.3811
vn 0.8896 -0.2699 -0.3685
vn 0.8896 0.2699 0.3685
vn 0.2882 -0.9501 0.1194
vn 0.9201 0.0906 0.3811
vn 0.0979 -0.9944 0.0406
vn 0.9201 -0.0906 0.3811
vn 0.8896 -0.2699 0.3685
vn 0.8284 -0.4428 0.3431
vn 0.7362 -0.6042 0.3049
vn 0.8053 0.4361 0.4017
vn 0.6136 -0.7476 0.2541
vn 0.8284 0.4428 0.3431
vn 0.4627 -0.8656 0.1916
vn 0.3431 -0.4428 0.8284
vn 0.3049 -0.6042 0.7362
vn 0.3979 0.4437 0.8030
vn 0.2541 -0.7476 0.6136
vn 0.3431 0.4428 0.8284
vn 0.1916 -0.8656 0.4627
vn 0.3685 0.2699 0.8896
vn 0.1194 -0.9501 0.2882
vn 0.3811 0.0906 0.9201
vn 0.0406 -0.9944 0.0979
vn 0.3811 -0.0906 0.9201
vn 0.3685 -0.2699 0.8896
vn -0.1194 -0.9501 0.2882
vn -0.3811 0.0906 0.9201
vn -0.0406 -0.9944 0.0979
vn -0.3811 -0.0906 0.9201
vn -0.3685 -0.2699 0.8896
vn -0.3431 -0.4428 0.8284
vn -0.3049 -0.6042 0.7362
vn -0.3979 0.4437 0.8030
vn -0.2541 -0.7476 0.6136
vn -0.3431 0.4428 0.8284
vn -0.1916 -0.8656 0.4627
vn -0.3685 0.2699 0.8896
vn -0.7362 -0.6042 0.3049
vn -0.7980 0.4597 0.3897
vn -0.6136 -0.7476 0.2541
vn -0.8284 0.4428 0.3431
vn -0.4627 -0.8656 0.1916
vn -0.8896 0.2699 0.3685
vn -0.2882 -0.9501 0.1194
vn -0.9201 0.0906 0.3811
vn -0.0979 -0.9944 0.0406
vn -0.9201 -0.0906 0.3811
vn -0.8896 -0.2699 0.3685
vn -0.8284 -0.4428 0.3431
vn -0.0979 -0.9944 -0.0406
vn -0.9201 -0.0906 -0.3811
vn -0.8896 -0.2699 -0.3685
vn -0.8284 -0.4428 -0.3431
vn -0.7362 -0.6042 -0.3049
vn -0.7980 0.4597 -0.3897
vn -0.6136 -0.7476 -0.2541
vn -0.8284 0.4428 -0.3431
vn -0.4627 -0.8656 -0.1916
vn -0.8896 0.2699 -0.3685
vn -0.2882 -0.9501 -0.1194
vn -0.9201 0.0906 -0.3811
vn -0.3808 0.4767 -0.7923
vn -0.2541 -0.7476 -0.6136
vn -0.3431 0.4428 -0.8284
vn -0.1916 -0.8656 -0.4627
vn -0.3685 0.2699 -0.8896
vn -0.1194 -0.9501 -0.2882
vn -0.3811 0.0906 -0.9201
vn -0.0406 -0.9944 -0.0979
vn -0.3811 -0.0906 -0.9201
vn -0.3685 -0.2699 -0.8896
vn -0.3431 -0.4428 -0.8284
vn -0.3049 -0.6042 -0.7362
vn -0.2522 0.7522 0.6088
vn -0.2787 0.6854 0.6727
vn 0.1546 0.9147 -0.3733
vn 0.2624 0.9029 -0.3406
vn 0.3733 0.9147 -0.1546
vn 0.1827 0.9492 -0.2564
vn -0.6088 0.7522 0.2522
vn -0.6727 0.6854 0.2787
vn -0.6088 0.7522 -0.2522
vn -0.6727 0.6854 -0.2787
vn 0.3733 0.9147 0.1546
vn 0.1827 0.9492 0.2564
vn 0.2582 0.9416 0.2160
vn -0.2522 0.7522 -0.6088
vn -0.2787 0.6854 -0.6727
vn 0.1546 0.9147 0.3733
vn 0.2522 0.7522 -0.6088
vn 0.2787 0.6854 -0.6727
vn -0.1546 0.9147 0.3733
vn -0.2582 0.9416 0.2160
vn 0.6088 0.7522 -0.2522
vn 0.6727 0.6854 -0.2787
vn -0.3733 0.9147 0.1546
vn -0.2802 0.9238 0.2609
vn 0.6088 0.7522 0.2522
vn 0.6727 0.6854 0.2787
vn -0.3733 0.9147 -0.1546
vn -0.2802 0.9238 -0.2609
vn 0.2522 0.7522 0.6088
vn 0.2787 0.6854 0.6727
vn -0.1546 0.9147 -0.3733
vn -0.2624 0.9029 -0.3406
usemtl Material
s off
f 120/1/1 119/2/1 12/3/1 13/4/1
f 113/5/2 112/6/2 5/7/2 6/8/2
f 121/9/3 120/1/3 13/4/3 14/10/3
f 114/11/4 113/5/4 6/8/4 7/12/4
f 122/13/5 121/9/5 14/10/5 15/14/5
f 115/15/6 114/11/6 7/12/6 8/16/6
f 1/17/7 122/13/7 15/14/7 16/18/7
f 116/19/8 115/15/8 8/16/8 9/20/8
f 62/21/9 1/17/9 16/18/9
f 117/22/10 116/19/10 9/20/10 10/23/10
f 118/24/11 117/22/11 10/23/11 11/25/11
f 119/2/12 118/24/12 11/25/12 12/3/12
f 12/3/13 11/25/13 26/26/13 27/27/13
f 13/4/14 12/3/14 27/27/14 28/28/14
f 6/8/15 5/7/15 20/29/15 21/30/15
f 14/10/16 13/4/16 28/28/16 29/31/16
f 7/12/17 6/8/17 21/30/17 22/32/17
f 15/14/18 14/10/18 29/31/18 30/33/18
f 8/16/19 7/12/19 22/32/19 23/34/19
f 16/18/20 15/14/20 30/33/20 31/35/20
f 9/20/21 8/16/21 23/34/21 24/36/21
f 62/37/22 16/18/22 31/35/22
f 10/23/23 9/20/23 24/36/23 25/38/23
f 11/25/24 10/23/24 25/38/24 26/26/24
f 23/34/25 22/32/25 37/39/25 38/40/25
f 31/35/26 30/33/26 45/41/26 46/42/26
f 24/36/27 23/34/27 38/40/27 39/43/27
f 62/44/28 31/35/28 46/42/28
f 25/38/29 24/36/29 39/43/29 40/45/29
f 26/26/30 25/38/30 40/45/30 41/46/30
f 27/27/31 26/26/31 41/46/31 42/47/31
f 28/28/32 27/27/32 42/47/32 43/48/32
f 21/30/33 20/29/33 35/49/33 36/50/33
f 29/31/34 28/28/34 43/48/34 44/51/34
f 22/32/35 21/30/35 36/50/35 37/39/35
f 30/33/36 29/31/36 44/51/36 45/41/36
f 42/47/37 41/46/37 56/52/37 57/53/37
f 43/48/38 42/47/38 57/53/38 58/54/38
f 36/50/39 35/49/39 50/55/39 51/56/39
f 44/51/40 43/48/40 58/54/40 59/57/40
f 37/39/41 36/50/41 51/56/41 52/58/41
f 45/41/42 44/51/42 59/57/42 60/59/42
f 38/40/43 37/39/43 52/58/43 53/60/43
f 46/42/44 45/41/44 60/59/44 61/61/44
f 39/43/45 38/40/45 53/60/45 54/62/45
f 62/63/46 46/42/46 61/61/46
f 40/45/47 39/43/47 54/62/47 55/64/47
f 41/46/48 40/45/48 55/64/48 56/52/48
f 61/61/49 60/59/49 77/65/49 78/66/49
f 54/62/50 53/60/50 70/67/50 71/68/50
f 62/69/51 61/61/51 78/66/51
f 55/64/52 54/62/52 71/68/52 72/70/52
f 56/52/53 55/64/53 72/70/53 73/71/53
f 57/53/54 56/52/54 73/71/54 74/72/54
f 58/54/55 57/53/55 74/72/55 75/73/55
f 51/56/56 50/55/56 67/74/56 68/75/56
f 59/57/57 58/54/57 75/73/57 76/76/57
f 52/58/58 51/56/58 68/75/58 69/77/58
f 60/59/59 59/57/59 76/76/59 77/65/59
f 53/60/60 52/58/60 69/77/60 70/67/60
f 75/73/61 74/72/61 89/78/61 90/79/61
f 68/75/62 67/74/62 82/80/62 83/81/62
f 76/76/63 75/73/63 90/79/63 91/82/63
f 69/77/64 68/75/64 83/81/64 84/83/64
f 77/65/65 76/76/65 91/82/65 92/84/65
f 70/67/66 69/77/66 84/83/66 85/85/66
f 78/66/67 77/65/67 92/84/67 93/86/67
f 71/68/68 70/67/68 85/85/68 86/87/68
f 62/88/69 78/66/69 93/86/69
f 72/70/70 71/68/70 86/87/70 87/89/70
f 73/71/71 72/70/71 87/89/71 88/90/71
f 74/72/72 73/71/72 88/90/72 89/78/72
f 62/91/73 93/92/73 108/93/73
f 87/94/74 86/95/74 101/96/74 102/97/74
f 88/98/75 87/94/75 102/97/75 103/99/75
f 89/100/76 88/98/76 103/99/76 104/101/76
f 90/102/77 89/100/77 104/101/77 105/103/77
f 83/104/78 82/105/78 97/106/78 98/107/78
f 91/108/79 90/102/79 105/103/79 106/109/79
f 84/110/80 83/104/80 98/107/80 99/111/80
f 92/112/81 91/108/81 106/109/81 107/113/81
f 85/114/82 84/110/82 99/111/82 100/115/82
f 93/92/83 92/112/83 107/113/83 108/93/83
f 86/95/84 85/114/84 100/115/84 101/96/84
f 98/107/85 97/106/85 112/6/85 113/5/85
f 106/109/86 105/103/86 120/1/86 121/9/86
f 99/111/87 98/107/87 113/5/87 114/11/87
f 107/113/88 106/109/88 121/9/88 122/13/88
f 100/115/89 99/111/89 114/11/89 115/15/89
f 108/93/90 107/113/90 122/13/90 1/17/90
f 101/96/91 100/115/91 115/15/91 116/19/91
f 62/116/92 108/93/92 1/17/92
f 102/97/93 101/96/93 116/19/93 117/22/93
f 103/99/94 102/97/94 117/22/94 118/24/94
f 104/101/95 103/99/95 118/24/95 119/2/95
f 105/103/96 104/101/96 119/2/96 120/1/96
usemtl Material.001
f 109/117/97 63/118/97 2/119/97
f 110/120/98 109/117/98 2/119/98 3/121/98
f 111/122/99 110/120/99 3/121/99 4/123/99
f 112/6/100 111/122/100 4/123/100 5/7/100
f 4/123/101 3/121/101 18/124/101 19/125/101
f 5/7/102 4/123/102 19/125/102 20/29/102
f 2/119/103 63/126/103 17/127/103
f 3/121/104 2/119/104 17/127/104 18/124/104
f 17/127/105 63/128/105 32/129/105
f 18/124/106 17/127/106 32/129/106 33/130/106
f 19/125/107 18/124/107 33/130/107 34/131/107
f 20/29/108 19/125/108 34/131/108 35/49/108
f 35/49/109 34/131/109 49/132/109 50/55/109
f 32/129/110 63/133/110 47/134/110
f 33/130/111 32/129/111 47/134/111 48/135/111
f 34/131/112 33/130/112 48/135/112 49/132/112
f 47/134/113 63/136/113 64/137/113
f 48/135/114 47/134/114 64/137/114 65/138/114
f 49/132/115 48/135/115 65/138/115 66/139/115
f 50/55/116 49/132/116 66/139/116 67/74/116
f 64/137/117 63/140/117 79/141/117
f 65/138/118 64/137/118 79/141/118 80/142/118
f 66/139/119 65/138/119 80/142/119 81/143/119
f 67/74/120 66/139/120 81/143/120 82/80/120
f 79/144/121 63/145/121 94/146/121
f 80/147/122 79/144/122 94/146/122 95/148/122
f 81/149/123 80/147/123 95/148/123 96/150/123
f 82/105/124 81/149/124 96/150/124 97/106/124
f 94/146/125 63/151/125 109/117/125
f 95/148/126 94/146/126 109/117/126 110/120/126
f 96/150/127 95/148/127 110/120/127 111/122/127
f 97/106/128 96/150/128 111/122/128 112/6/128
