# Blender v2.82 (sub 7) OBJ File: 'dino.blend'
# www.blender.org
mtllib cloud2.mtl
o Cube.001_Cube
v 2.506875 5.362452 -0.126935
v 2.997952 7.012682 -0.200225
v 3.552216 5.187702 -1.980313
v 3.707687 6.996458 -2.248505
v 4.956390 5.342139 0.572915
v 4.917457 6.760609 0.176389
v 5.508801 5.298761 -1.912259
v 4.244284 6.470342 -1.830164
v 3.205853 5.164361 -1.721130
v 2.897225 5.164801 -1.439103
v 2.654981 5.180153 -1.062912
v 2.377757 5.209000 -0.548794
v 2.428882 5.626476 -0.039442
v 2.484856 6.007648 -0.086293
v 2.600844 6.400200 -0.084244
v 2.717498 6.798486 -0.024448
v 2.939381 7.020422 -0.570917
v 3.166812 6.893855 -1.047197
v 3.563624 6.799855 -1.532197
v 3.511176 6.936764 -1.924730
v 3.559474 6.687281 -2.427729
v 3.474873 6.063259 -2.605096
v 3.668160 5.513650 -2.635221
v 3.597237 5.261293 -2.378368
v 5.336065 5.245580 -1.993064
v 4.907981 5.282679 -1.991550
v 4.488612 5.278853 -1.886330
v 3.981295 5.187886 -1.888290
v 4.121507 6.926501 -2.214458
v 4.656956 7.119387 -2.341674
v 4.881273 6.982326 -2.201439
v 4.708226 6.830466 -2.023933
v 5.504958 6.567125 -1.878742
v 5.694958 6.306704 -2.048910
v 5.753498 5.937059 -2.127710
v 5.739512 5.539610 -2.052056
v 4.997612 5.219411 0.282544
v 4.907277 5.229621 -0.214896
v 5.383240 5.477104 -0.927102
v 5.411734 5.410385 -1.613930
v 5.372295 6.915472 -1.489221
v 5.522367 6.958518 -1.145254
v 5.310641 6.941301 -0.623509
v 5.137704 6.677806 -0.173169
v 5.066061 6.752623 0.538229
v 5.127690 6.414341 0.865049
v 5.053287 6.016180 0.959152
v 5.042382 5.620436 0.835317
v 2.787014 5.298503 0.066557
v 3.291247 5.315257 0.079046
v 3.793202 5.259949 0.331563
v 4.441936 5.478063 0.399727
v 4.791662 6.913194 0.178462
v 4.416621 6.441828 -0.202259
v 3.979072 6.703780 -0.067558
v 3.407137 6.927504 -0.163089
v 5.057493 6.853821 -1.743013
v 5.300636 6.980103 -1.369348
v 5.226934 6.865288 -0.803914
v 5.113304 6.983410 -0.245745
v 4.742751 6.773997 -1.837786
v 4.789125 6.678743 -1.547343
v 4.752007 6.317561 -0.931271
v 4.602290 6.488324 -0.404963
v 4.650815 6.877005 -1.874164
v 4.534235 6.488945 -1.508560
v 4.294062 6.128647 -0.950511
v 4.215465 6.329802 -0.455171
v 3.869718 6.928334 -1.939860
v 3.548150 6.795366 -1.515839
v 3.869714 6.286153 -1.086191
v 3.189300 7.036656 -0.533416
v 3.815778 5.165158 -1.552977
v 3.475949 5.172102 -1.332392
v 3.106803 5.174369 -1.022717
v 2.802049 5.207916 -0.579700
v 4.371807 5.541389 -1.566219
v 4.009073 5.470850 -1.217576
v 3.388126 5.180122 -0.969733
v 3.294128 5.203835 -0.517726
v 4.824096 5.695710 -1.661322
v 4.701421 5.969732 -1.277413
v 4.732085 5.593082 -0.720458
v 4.152669 5.193589 -0.261416
v 5.155776 5.559204 -1.681484
v 5.364194 5.441589 -1.081710
v 4.830878 5.422786 -0.554719
v 4.273246 5.242421 0.120776
v 4.439239 5.631620 0.700946
v 3.791950 5.650732 0.436106
v 3.487664 5.601718 0.074067
v 3.016567 5.606319 -0.007342
v 4.512307 6.026513 0.809816
v 3.955044 6.038795 0.537764
v 3.742984 5.983015 0.019629
v 2.490549 6.004008 -0.068727
v 4.590517 6.426558 0.725780
v 4.242474 6.403981 0.311907
v 3.930210 6.285343 -0.034144
v 2.930971 6.383743 -0.035918
v 4.707185 6.825851 0.551278
v 4.313577 6.641322 0.149565
v 3.872996 6.588701 0.017171
v 3.398963 6.733440 -0.065505
v 5.717181 5.541446 -1.622630
v 5.806060 5.517857 -0.792224
v 5.137668 5.594851 0.143387
v 5.081446 5.602980 0.612854
v 5.969070 5.903125 -1.535527
v 5.883356 5.905375 -0.682030
v 5.274003 5.978444 0.316902
v 5.126729 5.996873 0.769259
v 5.693071 6.346088 -1.759236
v 5.862583 6.312964 -0.918009
v 5.233490 6.390120 -0.086268
v 5.240064 6.391442 0.663838
v 5.728455 6.669754 -1.576294
v 5.851654 6.720614 -1.086932
v 5.470973 6.737520 -0.496332
v 5.134448 6.821314 0.279056
v 4.082813 5.379165 -2.213171
v 4.606657 5.534115 -2.055641
v 4.958391 5.539467 -2.158951
v 5.407794 5.529383 -2.152775
v 4.075729 5.630654 -2.445469
v 4.686584 5.917465 -2.186305
v 5.028784 5.926715 -2.266603
v 5.417915 5.926987 -2.244987
v 4.055942 6.132646 -2.514795
v 4.665316 6.318570 -2.327494
v 5.213827 6.295985 -2.252118
v 5.467385 6.318621 -2.249160
v 4.275965 6.714731 -2.374318
v 4.703680 6.712554 -2.366235
v 5.024266 6.724851 -2.362797
v 5.182851 6.668954 -2.226476
v 2.443665 5.587755 -0.622617
v 2.707098 5.567197 -1.133486
v 2.484180 5.550308 -1.526988
v 3.427614 5.432647 -1.840823
v 2.218310 5.972163 -0.595373
v 2.367057 5.945034 -1.054659
v 3.207050 5.912057 -1.514769
v 3.430672 5.661731 -2.150142
v 2.356510 6.364191 -0.579115
v 2.285975 6.339394 -0.990693
v 3.061707 6.325384 -1.520341
v 3.082090 6.257049 -1.977779
v 2.721896 6.765369 -0.575224
v 3.073738 6.678990 -1.074520
v 3.426523 6.572473 -1.561681
v 3.176365 6.723254 -1.950657
vt 0.575000 0.200000
vt 0.625000 0.200000
vt 0.625000 0.250000
vt 0.575000 0.250000
vt 0.575000 0.450000
vt 0.625000 0.450000
vt 0.625000 0.500000
vt 0.575000 0.500000
vt 0.575000 0.700000
vt 0.625000 0.700000
vt 0.625000 0.750000
vt 0.575000 0.750000
vt 0.575000 0.950000
vt 0.625000 0.950000
vt 0.625000 1.000000
vt 0.575000 1.000000
vt 0.325000 0.700000
vt 0.375000 0.700000
vt 0.375000 0.750000
vt 0.325000 0.750000
vt 0.825000 0.700000
vt 0.875000 0.700000
vt 0.875000 0.750000
vt 0.825000 0.750000
vt 0.675000 0.700000
vt 0.675000 0.750000
vt 0.725000 0.700000
vt 0.725000 0.750000
vt 0.775000 0.700000
vt 0.775000 0.750000
vt 0.675000 0.500000
vt 0.675000 0.550000
vt 0.625000 0.550000
vt 0.675000 0.600000
vt 0.625000 0.600000
vt 0.675000 0.650000
vt 0.625000 0.650000
vt 0.725000 0.500000
vt 0.725000 0.550000
vt 0.725000 0.600000
vt 0.725000 0.650000
vt 0.775000 0.500000
vt 0.775000 0.550000
vt 0.775000 0.600000
vt 0.775000 0.650000
vt 0.825000 0.500000
vt 0.825000 0.550000
vt 0.825000 0.600000
vt 0.825000 0.650000
vt 0.875000 0.500000
vt 0.875000 0.550000
vt 0.875000 0.600000
vt 0.875000 0.650000
vt 0.125000 0.700000
vt 0.175000 0.700000
vt 0.175000 0.750000
vt 0.125000 0.750000
vt 0.225000 0.700000
vt 0.225000 0.750000
vt 0.275000 0.700000
vt 0.275000 0.750000
vt 0.125000 0.500000
vt 0.175000 0.500000
vt 0.175000 0.550000
vt 0.125000 0.550000
vt 0.175000 0.600000
vt 0.125000 0.600000
vt 0.175000 0.650000
vt 0.125000 0.650000
vt 0.225000 0.500000
vt 0.225000 0.550000
vt 0.225000 0.600000
vt 0.225000 0.650000
vt 0.275000 0.500000
vt 0.275000 0.550000
vt 0.275000 0.600000
vt 0.275000 0.650000
vt 0.325000 0.500000
vt 0.325000 0.550000
vt 0.325000 0.600000
vt 0.325000 0.650000
vt 0.375000 0.500000
vt 0.375000 0.550000
vt 0.375000 0.600000
vt 0.375000 0.650000
vt 0.375000 0.950000
vt 0.425000 0.950000
vt 0.425000 1.000000
vt 0.375000 1.000000
vt 0.475000 0.950000
vt 0.475000 1.000000
vt 0.525000 0.950000
vt 0.525000 1.000000
vt 0.425000 0.750000
vt 0.425000 0.800000
vt 0.375000 0.800000
vt 0.425000 0.850000
vt 0.375000 0.850000
vt 0.425000 0.900000
vt 0.375000 0.900000
vt 0.475000 0.750000
vt 0.475000 0.800000
vt 0.475000 0.850000
vt 0.475000 0.900000
vt 0.525000 0.750000
vt 0.525000 0.800000
vt 0.525000 0.850000
vt 0.525000 0.900000
vt 0.575000 0.800000
vt 0.575000 0.850000
vt 0.575000 0.900000
vt 0.625000 0.800000
vt 0.625000 0.850000
vt 0.625000 0.900000
vt 0.425000 0.700000
vt 0.475000 0.700000
vt 0.525000 0.700000
vt 0.425000 0.500000
vt 0.425000 0.550000
vt 0.425000 0.600000
vt 0.425000 0.650000
vt 0.475000 0.500000
vt 0.475000 0.550000
vt 0.475000 0.600000
vt 0.475000 0.650000
vt 0.525000 0.500000
vt 0.525000 0.550000
vt 0.525000 0.600000
vt 0.525000 0.650000
vt 0.575000 0.550000
vt 0.575000 0.600000
vt 0.575000 0.650000
vt 0.375000 0.450000
vt 0.425000 0.450000
vt 0.475000 0.450000
vt 0.525000 0.450000
vt 0.375000 0.250000
vt 0.425000 0.250000
vt 0.425000 0.300000
vt 0.375000 0.300000
vt 0.425000 0.350000
vt 0.375000 0.350000
vt 0.425000 0.400000
vt 0.375000 0.400000
vt 0.475000 0.250000
vt 0.475000 0.300000
vt 0.475000 0.350000
vt 0.475000 0.400000
vt 0.525000 0.250000
vt 0.525000 0.300000
vt 0.525000 0.350000
vt 0.525000 0.400000
vt 0.575000 0.300000
vt 0.575000 0.350000
vt 0.575000 0.400000
vt 0.625000 0.300000
vt 0.625000 0.350000
vt 0.625000 0.400000
vt 0.375000 0.200000
vt 0.425000 0.200000
vt 0.475000 0.200000
vt 0.525000 0.200000
vt 0.375000 0.000000
vt 0.425000 0.000000
vt 0.425000 0.050000
vt 0.375000 0.050000
vt 0.425000 0.100000
vt 0.375000 0.100000
vt 0.425000 0.150000
vt 0.375000 0.150000
vt 0.475000 0.000000
vt 0.475000 0.050000
vt 0.475000 0.100000
vt 0.475000 0.150000
vt 0.525000 0.000000
vt 0.525000 0.050000
vt 0.525000 0.100000
vt 0.525000 0.150000
vt 0.575000 0.000000
vt 0.575000 0.050000
vt 0.575000 0.100000
vt 0.575000 0.150000
vt 0.625000 0.000000
vt 0.625000 0.050000
vt 0.625000 0.100000
vt 0.625000 0.150000
vn -0.8157 0.5714 -0.0901
vn -0.3912 0.9142 0.1057
vn -0.1347 0.9013 -0.4117
vn -0.3677 0.4604 -0.8079
vn 0.6018 0.7674 -0.2210
vn 0.5389 0.6655 0.5163
vn 0.7828 0.5601 -0.2710
vn 0.4788 0.7611 -0.4375
vn 0.5084 0.8543 0.1084
vn 0.3558 0.8869 0.2947
vn 0.3886 0.8991 0.2016
vn 0.4256 0.7776 0.4626
vn 0.0062 0.2818 0.9594
vn 0.2846 0.8677 0.4075
vn -0.2016 0.8813 0.4273
vn -0.5004 0.4968 0.7090
vn 0.0211 -0.9847 0.1730
vn 0.4934 -0.8517 0.1765
vn 0.2883 -0.7833 0.5506
vn -0.1664 -0.7623 0.6255
vn 0.3666 0.9216 -0.1273
vn -0.3204 0.9233 -0.2116
vn 0.1568 0.9840 0.0841
vn -0.0269 0.9988 -0.0395
vn -0.4538 0.8055 -0.3809
vn -0.1844 0.9166 -0.3546
vn 0.1702 0.9012 -0.3986
vn 0.3143 0.9488 0.0315
vn 0.2220 0.4213 -0.8793
vn 0.2859 0.8228 -0.4912
vn -0.1865 0.9789 -0.0831
vn 0.3094 0.9509 -0.0071
vn -0.4217 0.9066 0.0129
vn 0.4118 0.8761 0.2506
vn 0.5496 0.8354 0.0018
vn -0.1286 0.8939 0.4292
vn -0.4480 0.8261 0.3418
vn -0.5437 0.8392 -0.0056
vn 0.0989 0.8660 -0.4901
vn 0.1000 0.8638 0.4938
vn -0.1147 0.8255 0.5526
vn 0.0305 0.9980 0.0558
vn -0.0286 0.9106 -0.4122
vn 0.0748 0.9308 0.3579
vn 0.3873 0.7678 0.5104
vn 0.4468 0.8740 0.1910
vn -0.3889 0.9050 0.1726
vn -0.1384 0.8763 -0.4614
vn -0.7737 -0.6329 -0.0281
vn -0.0378 -0.9914 0.1252
vn -0.1726 -0.5824 0.7943
vn -0.6501 -0.4973 0.5744
vn 0.0393 -0.9989 0.0249
vn -0.2280 -0.6290 0.7432
vn 0.1370 -0.9863 -0.0921
vn -0.2435 -0.7414 0.6254
vn -0.3285 -0.8620 -0.3861
vn 0.2529 -0.9653 -0.0641
vn 0.2562 -0.9313 0.2588
vn -0.3277 -0.8202 -0.4689
vn 0.1815 -0.9768 0.1135
vn -0.4102 -0.8527 -0.3234
vn 0.0425 -0.9977 0.0528
vn -0.6122 -0.7768 -0.1476
vn 0.2973 -0.9547 0.0044
vn 0.4061 -0.7330 0.5457
vn 0.4615 -0.8851 0.0607
vn 0.2308 -0.9723 -0.0370
vn -0.0902 -0.9815 -0.1685
vn -0.0442 -0.8229 0.5664
vn 0.0211 -0.9997 0.0111
vn -0.0375 -0.9041 -0.4256
vn -0.0597 -0.9626 -0.2641
vn -0.3643 -0.8321 0.4181
vn -0.4046 -0.9076 -0.1124
vn -0.0932 -0.9395 -0.3295
vn 0.2826 -0.9550 -0.0900
vn -0.0119 -0.9806 0.1955
vn 0.1488 -0.9879 -0.0428
vn 0.1956 -0.9763 -0.0921
vn -0.1188 0.1296 0.9844
vn -0.6913 -0.0334 0.7217
vn -0.1117 0.0895 0.9897
vn -0.6443 0.0809 0.7605
vn -0.0470 0.0226 0.9986
vn -0.5976 0.2727 0.7539
vn 0.4507 -0.4939 0.7435
vn -0.2843 -0.4448 0.8493
vn -0.5919 -0.0322 0.8053
vn -0.4276 0.1804 0.8857
vn 0.3843 -0.0678 0.9207
vn -0.3733 0.1063 0.9216
vn -0.6464 0.3413 0.6824
vn -0.4880 0.3518 0.7988
vn 0.4590 0.3346 0.8230
vn -0.4027 0.4736 0.7832
vn -0.6444 0.4676 0.6050
vn -0.4624 0.3219 0.8261
vn -0.2346 0.8680 0.4376
vn -0.4951 0.8313 0.2526
vn -0.1281 0.4178 0.8994
vn 0.9155 -0.3445 0.2076
vn 0.9489 -0.1454 0.2799
vn 0.9432 0.1543 0.2940
vn 0.6889 -0.5245 -0.5003
vn 0.7272 -0.6863 0.0099
vn 0.6891 -0.6982 0.1940
vn 0.8369 -0.4986 0.2259
vn 0.7523 -0.0238 -0.6583
vn 0.9947 -0.0309 -0.0981
vn 0.9408 -0.0141 0.3387
vn 0.9449 -0.1162 0.3059
vn 0.7574 0.3881 -0.5250
vn 0.9106 0.3184 -0.2634
vn 0.9421 0.2558 0.2168
vn 0.9174 0.1966 0.3458
vn 0.7367 0.5187 -0.4338
vn 0.8902 0.4498 0.0727
vn 0.6581 0.6271 0.4167
vn 0.1773 -0.4059 -0.8965
vn 0.2130 -0.0949 -0.9724
vn 0.4416 0.2792 -0.8527
vn -0.3811 -0.7214 -0.5782
vn 0.3507 -0.7324 -0.5836
vn 0.0707 -0.5246 -0.8484
vn -0.1181 -0.3735 -0.9201
vn -0.2151 -0.4353 -0.8742
vn 0.4053 -0.3494 -0.8447
vn 0.1304 -0.2654 -0.9553
vn -0.0397 -0.1758 -0.9836
vn -0.4736 -0.0198 -0.8805
vn 0.2394 0.0362 -0.9702
vn 0.1669 -0.1040 -0.9804
vn 0.1270 -0.0300 -0.9914
vn 0.0314 0.2400 -0.9702
vn 0.1124 0.1153 -0.9869
vn 0.5267 0.3266 -0.7847
vn -0.7447 -0.0620 -0.6645
vn -0.8883 -0.2185 -0.4039
vn -0.9745 0.0025 -0.2244
vn -0.9666 -0.2079 -0.1502
vn -0.9264 -0.1208 -0.3567
vn -0.8134 -0.0331 -0.5807
vn -0.9926 -0.1003 0.0675
vn -0.8391 -0.1436 -0.5247
vn -0.7994 -0.0377 -0.5996
vn -0.8824 0.4658 0.0663
vn -0.7984 0.3862 -0.4618
vn -0.8216 0.3167 -0.4740
vn -0.7208 0.6774 -0.1469
vn -0.5861 0.6160 -0.5262
vn -0.7525 0.6525 -0.0888
usemtl cloud
s 1
f 152/1/1 20/2/2 4/3/3 21/4/4
f 136/5/5 32/6/6 8/7/7 33/8/8
f 120/9/9 44/10/10 6/11/11 45/12/12
f 104/13/13 56/14/14 2/15/15 16/16/16
f 88/17/17 37/18/18 5/19/19 52/20/20
f 72/21/21 17/22/22 2/23/15 56/24/14
f 44/10/10 60/25/23 53/26/24 6/11/11
f 60/25/23 64/27/25 54/28/26 53/26/24
f 64/27/25 68/29/27 55/30/28 54/28/26
f 68/29/27 72/21/21 56/24/14 55/30/28
f 8/7/7 32/31/6 57/32/29 41/33/30
f 41/33/30 57/32/29 58/34/31 42/35/32
f 42/35/32 58/34/31 59/36/33 43/37/34
f 43/37/34 59/36/33 60/25/23 44/10/10
f 32/31/6 31/38/35 61/39/36 57/32/29
f 57/32/29 61/39/36 62/40/37 58/34/31
f 58/34/31 62/40/37 63/41/38 59/36/33
f 59/36/33 63/41/38 64/27/25 60/25/23
f 31/38/35 30/42/39 65/43/40 61/39/36
f 61/39/36 65/43/40 66/44/41 62/40/37
f 62/40/37 66/44/41 67/45/42 63/41/38
f 63/41/38 67/45/42 68/29/27 64/27/25
f 30/42/39 29/46/43 69/47/44 65/43/40
f 65/43/40 69/47/44 70/48/45 66/44/41
f 66/44/41 70/48/45 71/49/46 67/45/42
f 67/45/42 71/49/46 72/21/21 68/29/27
f 29/46/43 4/50/3 20/51/2 69/47/44
f 69/47/44 20/51/2 19/52/47 70/48/45
f 70/48/45 19/52/47 18/53/48 71/49/46
f 71/49/46 18/53/48 17/22/22 72/21/21
f 12/54/49 76/55/50 49/56/51 1/57/52
f 76/55/50 80/58/53 50/59/54 49/56/51
f 80/58/53 84/60/55 51/61/56 50/59/54
f 84/60/55 88/17/17 52/20/20 51/61/56
f 3/62/57 28/63/58 73/64/59 9/65/60
f 9/65/60 73/64/59 74/66/61 10/67/62
f 10/67/62 74/66/61 75/68/63 11/69/64
f 11/69/64 75/68/63 76/55/50 12/54/49
f 28/63/58 27/70/65 77/71/66 73/64/59
f 73/64/59 77/71/66 78/72/67 74/66/61
f 74/66/61 78/72/67 79/73/68 75/68/63
f 75/68/63 79/73/68 80/58/53 76/55/50
f 27/70/65 26/74/69 81/75/70 77/71/66
f 77/71/66 81/75/70 82/76/71 78/72/67
f 78/72/67 82/76/71 83/77/72 79/73/68
f 79/73/68 83/77/72 84/60/55 80/58/53
f 26/74/69 25/78/73 85/79/74 81/75/70
f 81/75/70 85/79/74 86/80/75 82/76/71
f 82/76/71 86/80/75 87/81/76 83/77/72
f 83/77/72 87/81/76 88/17/17 84/60/55
f 25/78/73 7/82/77 40/83/78 85/79/74
f 85/79/74 40/83/78 39/84/79 86/80/75
f 86/80/75 39/84/79 38/85/80 87/81/76
f 87/81/76 38/85/80 37/18/18 88/17/17
f 49/86/51 92/87/81 13/88/82 1/89/52
f 92/87/81 96/90/83 14/91/84 13/88/82
f 96/90/83 100/92/85 15/93/86 14/91/84
f 100/92/85 104/13/13 16/16/16 15/93/86
f 5/19/19 48/94/87 89/95/88 52/96/20
f 52/96/20 89/95/88 90/97/89 51/98/56
f 51/98/56 90/97/89 91/99/90 50/100/54
f 50/100/54 91/99/90 92/87/81 49/86/51
f 48/94/87 47/101/91 93/102/92 89/95/88
f 89/95/88 93/102/92 94/103/93 90/97/89
f 90/97/89 94/103/93 95/104/94 91/99/90
f 91/99/90 95/104/94 96/90/83 92/87/81
f 47/101/91 46/105/95 97/106/96 93/102/92
f 93/102/92 97/106/96 98/107/97 94/103/93
f 94/103/93 98/107/97 99/108/98 95/104/94
f 95/104/94 99/108/98 100/92/85 96/90/83
f 46/105/95 45/12/12 101/109/99 97/106/96
f 97/106/96 101/109/99 102/110/100 98/107/97
f 98/107/97 102/110/100 103/111/101 99/108/98
f 99/108/98 103/111/101 104/13/13 100/92/85
f 45/12/12 6/11/11 53/112/24 101/109/99
f 101/109/99 53/112/24 54/113/26 102/110/100
f 102/110/100 54/113/26 55/114/28 103/111/101
f 103/111/101 55/114/28 56/14/14 104/13/13
f 37/18/18 108/115/102 48/94/87 5/19/19
f 108/115/102 112/116/103 47/101/91 48/94/87
f 112/116/103 116/117/104 46/105/95 47/101/91
f 116/117/104 120/9/9 45/12/12 46/105/95
f 7/82/77 36/118/105 105/119/106 40/83/78
f 40/83/78 105/119/106 106/120/107 39/84/79
f 39/84/79 106/120/107 107/121/108 38/85/80
f 38/85/80 107/121/108 108/115/102 37/18/18
f 36/118/105 35/122/109 109/123/110 105/119/106
f 105/119/106 109/123/110 110/124/111 106/120/107
f 106/120/107 110/124/111 111/125/112 107/121/108
f 107/121/108 111/125/112 112/116/103 108/115/102
f 35/122/109 34/126/113 113/127/114 109/123/110
f 109/123/110 113/127/114 114/128/115 110/124/111
f 110/124/111 114/128/115 115/129/116 111/125/112
f 111/125/112 115/129/116 116/117/104 112/116/103
f 34/126/113 33/8/8 117/130/117 113/127/114
f 113/127/114 117/130/117 118/131/118 114/128/115
f 114/128/115 118/131/118 119/132/119 115/129/116
f 115/129/116 119/132/119 120/9/9 116/117/104
f 33/8/8 8/7/7 41/33/30 117/130/117
f 117/130/117 41/33/30 42/35/32 118/131/118
f 118/131/118 42/35/32 43/37/34 119/132/119
f 119/132/119 43/37/34 44/10/10 120/9/9
f 25/133/73 124/134/120 36/118/105 7/82/77
f 124/134/120 128/135/121 35/122/109 36/118/105
f 128/135/121 132/136/122 34/126/113 35/122/109
f 132/136/122 136/5/5 33/8/8 34/126/113
f 3/137/57 24/138/123 121/139/124 28/140/58
f 28/140/58 121/139/124 122/141/125 27/142/65
f 27/142/65 122/141/125 123/143/126 26/144/69
f 26/144/69 123/143/126 124/134/120 25/133/73
f 24/138/123 23/145/127 125/146/128 121/139/124
f 121/139/124 125/146/128 126/147/129 122/141/125
f 122/141/125 126/147/129 127/148/130 123/143/126
f 123/143/126 127/148/130 128/135/121 124/134/120
f 23/145/127 22/149/131 129/150/132 125/146/128
f 125/146/128 129/150/132 130/151/133 126/147/129
f 126/147/129 130/151/133 131/152/134 127/148/130
f 127/148/130 131/152/134 132/136/122 128/135/121
f 22/149/131 21/4/4 133/153/135 129/150/132
f 129/150/132 133/153/135 134/154/136 130/151/133
f 130/151/133 134/154/136 135/155/137 131/152/134
f 131/152/134 135/155/137 136/5/5 132/136/122
f 21/4/4 4/3/3 29/156/43 133/153/135
f 133/153/135 29/156/43 30/157/39 134/154/136
f 134/154/136 30/157/39 31/158/35 135/155/137
f 135/155/137 31/158/35 32/6/6 136/5/5
f 9/159/60 140/160/138 24/138/123 3/137/57
f 140/160/138 144/161/139 23/145/127 24/138/123
f 144/161/139 148/162/140 22/149/131 23/145/127
f 148/162/140 152/1/1 21/4/4 22/149/131
f 1/163/52 13/164/82 137/165/141 12/166/49
f 12/166/49 137/165/141 138/167/142 11/168/64
f 11/168/64 138/167/142 139/169/143 10/170/62
f 10/170/62 139/169/143 140/160/138 9/159/60
f 13/164/82 14/171/84 141/172/144 137/165/141
f 137/165/141 141/172/144 142/173/145 138/167/142
f 138/167/142 142/173/145 143/174/146 139/169/143
f 139/169/143 143/174/146 144/161/139 140/160/138
f 14/171/84 15/175/86 145/176/147 141/172/144
f 141/172/144 145/176/147 146/177/148 142/173/145
f 142/173/145 146/177/148 147/178/149 143/174/146
f 143/174/146 147/178/149 148/162/140 144/161/139
f 15/175/86 16/179/16 149/180/150 145/176/147
f 145/176/147 149/180/150 150/181/151 146/177/148
f 146/177/148 150/181/151 151/182/152 147/178/149
f 147/178/149 151/182/152 152/1/1 148/162/140
f 16/179/16 2/183/15 17/184/22 149/180/150
f 149/180/150 17/184/22 18/185/48 150/181/151
f 150/181/151 18/185/48 19/186/47 151/182/152
f 151/182/152 19/186/47 20/2/2 152/1/1
