# Blender v2.82 (sub 7) OBJ File: 'dino.blend'
# www.blender.org
mtllib cloud2.mtl
o Cube.001_Cube
v 2.506875 5.362452 -0.126935
v 2.997952 7.012682 -0.200225
v 3.552216 5.187702 -1.980313
v 3.707687 6.996458 -2.248505
v 4.956390 5.342139 0.572915
v 4.917457 6.760609 0.176389
v 5.508801 5.298761 -1.912259
v 4.244284 6.470342 -1.830164
v 3.205853 5.164361 -1.721130
v 2.897225 5.164801 -1.439103
v 2.654981 5.180153 -1.062912
v 2.377757 5.209000 -0.548794
v 2.428882 5.626476 -0.039442
v 2.484856 6.007648 -0.086293
v 2.600844 6.400200 -0.084244
v 2.717498 6.798486 -0.024448
v 2.939381 7.020422 -0.570917
v 3.166812 6.893855 -1.047197
v 3.563624 6.799855 -1.532197
v 3.511176 6.936764 -1.924730
v 3.559474 6.687281 -2.427729
v 3.474873 6.063259 -2.605096
v 3.668160 5.513650 -2.635221
v 3.597237 5.261293 -2.378368
v 5.336065 5.245580 -1.993064
v 4.907981 5.282679 -1.991550
v 4.488612 5.278853 -1.886330
v 3.981295 5.187886 -1.888290
v 4.121507 6.926501 -2.214458
v 4.656956 7.119387 -2.341674
v 4.881273 6.982326 -2.201439
v 4.708226 6.830466 -2.023933
v 5.504958 6.567125 -1.878742
v 5.694958 6.306704 -2.048910
v 5.753498 5.937059 -2.127710
v 5.739512 5.539610 -2.052056
v 4.997612 5.219411 0.282544
v 4.907277 5.229621 -0.214896
v 5.383240 5.477104 -0.927102
v 5.411734 5.410385 -1.613930
v 5.372295 6.915472 -1.489221
v 5.522367 6.958518 -1.145254
v 5.310641 6.941301 -0.623509
v 5.137704 6.677806 -0.173169
v 5.066061 6.752623 0.538229
v 5.127690 6.414341 0.865049
v 5.053287 6.016180 0.959152
v 5.042382 5.620436 0.835317
v 2.787014 5.298503 0.066557
v 3.291247 5.315257 0.079046
v 3.793202 5.259949 0.331563
v 4.441936 5.478063 0.399727
v 4.791662 6.913194 0.178462
v 4.416621 6.441828 -0.202259
v 3.979072 6.703780 -0.067558
v 3.407137 6.927504 -0.163089
v 5.057493 6.853821 -1.743013
v 5.300636 6.980103 -1.369348
v 5.226934 6.865288 -0.803914
v 5.113304 6.983410 -0.245745
v 4.742751 6.773997 -1.837786
v 4.789125 6.678743 -1.547343
v 4.752007 6.317561 -0.931271
v 4.602290 6.488324 -0.404963
v 4.650815 6.877005 -1.874164
v 4.534235 6.488945 -1.508560
v 4.294062 6.128647 -0.950511
v 4.215465 6.329802 -0.455171
v 3.869718 6.928334 -1.939860
v 3.548150 6.795366 -1.515839
v 3.869714 6.286153 -1.086191
v 3.189300 7.036656 -0.533416
v 3.815778 5.165158 -1.552977
v 3.475949 5.172102 -1.332392
v 3.106803 5.174369 -1.022717
v 2.802049 5.207916 -0.579700
v 4.371807 5.541389 -1.566219
v 4.009073 5.470850 -1.217576
v 3.388126 5.180122 -0.969733
v 3.294128 5.203835 -0.517726
v 4.824096 5.695710 -1.661322
v 4.701421 5.969732 -1.277413
v 4.732085 5.593082 -0.720458
v 4.152669 5.193589 -0.261416
v 5.155776 5.559204 -1.681484
v 5.364194 5.441589 -1.081710
v 4.830878 5.422786 -0.554719
v 4.273246 5.242421 0.120776
v 4.439239 5.631620 0.700946
v 3.791950 5.650732 0.436106
v 3.487664 5.601718 0.074067
v 3.016567 5.606319 -0.007342
v 4.512307 6.026513 0.809816
v 3.955044 6.038795 0.537764
v 3.742984 5.983015 0.019629
v 2.490549 6.004008 -0.068727
v 4.590517 6.426558 0.725780
v 4.242474 6.403981 0.311907
v 3.930210 6.285343 -0.034144
v 2.930971 6.383743 -0.035918
v 4.707185 6.825851 0.551278
v 4.313577 6.641322 0.149565
v 3.872996 6.588701 0.017171
v 3.398963 6.733440 -0.065505
v 5.717181 5.541446 -1.622630
v 5.806060 5.517857 -0.792224
v 5.137668 5.594851 0.143387
v 5.081446 5.602980 0.612854
v 5.969070 5.903125 -1.535527
v 5.883356 5.905375 -0.682030
v 5.274003 5.978444 0.316902
v 5.126729 5.996873 0.769259
v 5.693071 6.346088 -1.759236
v 5.862583 6.312964 -0.918009
v 5.233490 6.390120 -0.086268
v 5.240064 6.391442 0.663838
v 5.728455 6.669754 -1.576294
v 5.851654 6.720614 -1.086932
v 5.470973 6.737520 -0.496332
v 5.134448 6.821314 0.279056
v 4.082813 5.379165 -2.213171
v 4.606657 5.534115 -2.055641
v 4.958391 5.539467 -2.158951
v 5.407794 5.529383 -2.152775
v 4.075729 5.630654 -2.445469
v 4.686584 5.917465 -2.186305
v 5.028784 5.926715 -2.266603
v 5.417915 5.926987 -2.244987
v 4.055942 6.132646 -2.514795
v 4.665316 6.318570 -2.327494
v 5.213827 6.295985 -2.252118
v 5.467385 6.318621 -2.249160
v 4.275965 6.714731 -2.374318
v 4.703680 6.712554 -2.366235
v 5.024266 6.724851 -2.362797
v 5.182851 6.668954 -2.226476
v 2.443665 5.587755 -0.622617
v 2.707098 5.567197 -1.133486
v 2.484180 5.550308 -1.526988
v 3.427614 5.432647 -1.840823
v 2.218310 5.972163 -0.595373
v 2.367057 5.945034 -1.054659
v 3.207050 5.912057 -1.514769
v 3.430672 5.661731 -2.150142
v 2.356510 6.364191 -0.579115
v 2.285975 6.339394 -0.990693
v 3.061707 6.325384 -1.520341
v 3.082090 6.257049 -1.977779
v 2.721896 6.765369 -0.575224
v 3.073738 6.678990 -1.074520
v 3.426523 6.572473 -1.561681
v 3.176365 6.723254 -1.950657
vt 0.575000 0.200000
vt 0.625000 0.200000
vt 0.625000 0.250000
vt 0.575000 0.250000
vt 0.575000 0.450000
vt 0.625000 0.450000
vt 0.625000 0.500000
vt 0.575000 0.500000
vt 0.575000 0.700000
vt 0.625000 0.700000
vt 0.625000 0.750000
vt 0.575000 0.750000
vt 0.575000 0.950000
vt 0.625000 0.950000
vt 0.625000 1.000000
vt 0.575000 1.000000
vt 0.325000 0.700000
vt 0.375000 0.700000
vt 0.375000 0.750000
vt 0.325000 0.750000
vt 0.825000 0.700000
vt 0.875000 0.700000
vt 0.875000 0.750000
vt 0.825000 0.750000
vt 0.675000 0.700000
vt 0.675000 0.750000
vt 0.725000 0.700000
vt 0.725000 0.750000
vt 0.775000 0.700000
vt 0.775000 0.750000
vt 0.675000 0.500000
vt 0.675000 0.550000
vt 0.625000 0.550000
vt 0.675000 0.600000
vt 0.625000 0.600000
vt 0.675000 0.650000
vt 0.625000 0.650000
vt 0.725000 0.500000
vt 0.725000 0.550000
vt 0.725000 0.600000
vt 0.725000 0.650000
vt 0.775000 0.500000
vt 0.775000 0.550000
vt 0.775000 0.600000
vt 0.775000 0.650000
vt 0.825000 0.500000
vt 0.825000 0.550000
vt 0.825000 0.600000
vt 0.825000 0.650000
vt 0.875000 0.500000
vt 0.875000 0.550000
vt 0.875000 0.600000
vt 0.875000 0.650000
vt 0.125000 0.700000
vt 0.175000 0.700000
vt 0.175000 0.750000
vt 0.125000 0.750000
vt 0.225000 0.700000
vt 0.225000 0.750000
vt 0.275000 0.700000
vt 0.275000 0.750000
vt 0.125000 0.500000
vt 0.175000 0.500000
vt 0.175000 0.550000
vt 0.125000 0.550000
vt 0.175000 0.600000
vt 0.125000 0.600000
vt 0.175000 0.650000
vt 0.125000 0.650000
vt 0.225000 0.500000
vt 0.225000 0.550000
vt 0.225000 0.600000
vt 0.225000 0.650000
vt 0.275000 0.500000
vt 0.275000 0.550000
vt 0.275000 0.600000
vt 0.275000 0.650000
vt 0.325000 0.500000
vt 0.325000 0.550000
vt 0.325000 0.600000
vt 0.325000 0.650000
vt 0.375000 0.500000
vt 0.375000 0.550000
vt 0.375000 0.600000
vt 0.375000 0.650000
vt 0.375000 0.950000
vt 0.425000 0.950000
vt 0.425000 1.000000
vt 0.375000 1.000000
vt 0.475000 0.950000
vt 0.475000 1.000000
vt 0.525000 0.950000
vt 0.525000 1.000000
vt 0.425000 0.750000
vt 0.425000 0.800000
vt 0.375000 0.800000
vt 0.425000 0.850000
vt 0.375000 0.850000
vt 0.425000 0.900000
vt 0.375000 0.900000
vt 0.475000 0.750000
vt 0.475000 0.800000
vt 0.475000 0.850000
vt 0.475000 0.900000
vt 0.525000 0.750000
vt 0.525000 0.800000
vt 0.525000 0.850000
vt 0.525000 0.900000
vt 0.575000 0.800000
vt 0.575000 0.850000
vt 0.575000 0.900000
vt 0.625000 0.800000
vt 0.625000 0.850000
vt 0.625000 0.900000
vt 0.425000 0.700000
vt 0.475000 0.700000
vt 0.525000 0.700000
vt 0.425000 0.500000
vt 0.425000 0.550000
vt 0.425000 0.600000
vt 0.425000 0.650000
vt 0.475000 0.500000
vt 0.475000 0.550000
vt 0.475000 0.600000
vt 0.475000 0.650000
vt 0.525000 0.500000
vt 0.525000 0.550000
vt 0.525000 0.600000
vt 0.525000 0.650000
vt 0.575000 0.550000
vt 0.575000 0.600000
vt 0.575000 0.650000
vt 0.375000 0.450000
vt 0.425000 0.450000
vt 0.475000 0.450000
vt 0.525000 0.450000
vt 0.375000 0.250000
vt 0.425000 0.250000
vt 0.425000 0.300000
vt 0.375000 0.300000
vt 0.425000 0.350000
vt 0.375000 0.350000
vt 0.425000 0.400000
vt 0.375000 0.400000
vt 0.475000 0.250000
vt 0.475000 0.300000
vt 0.475000 0.350000
vt 0.475000 0.400000
vt 0.525000 0.250000
vt 0.525000 0.300000
vt 0.525000 0.350000
vt 0.525000 0.400000
vt 0.575000 0.300000
vt 0.575000 0.350000
vt 0.575000 0.400000
vt 0.625000 0.300000
vt 0.625000 0.350000
vt 0.625000 0.400000
vt 0.375000 0.200000
vt 0.425000 0.200000
vt 0.475000 0.200000
vt 0.525000 0.200000
vt 0.375000 0.000000
vt 0.425000 0.000000
vt 0.425000 0.050000
vt 0.375000 0.050000
vt 0.425000 0.100000
vt 0.375000 0.100000
vt 0.425000 0.150000
vt 0.375000 0.150000
vt 0.475000 0.000000
vt 0.475000 0.050000
vt 0.475000 0.100000
vt 0.475000 0.150000
vt 0.525000 0.000000
vt 0.525000 0.050000
vt 0.525000 0.100000
vt 0.525000 0.150000
vt 0.575000 0.000000
vt 0.575000 0.050000
vt 0.575000 0.100000
vt 0.575000 0.150000
vt 0.625000 0.000000
vt 0.625000 0.050000
vt 0.625000 0.100000
vt 0.625000 0.150000
vn -0.5872 0.7013 -0.4042
vn 0.1234 0.7388 0.6626
vn -0.2128 0.9693 -0.1234
vn 0.0744 0.5180 0.8522
vn -0.2518 -0.7926 0.5553
vn 0.0895 0.9884 0.1225
vn 0.7740 0.3363 0.5366
vn -0.5901 0.7317 -0.3413
vn 0.0660 0.8918 -0.4475
vn 0.5061 0.8180 -0.2734
vn 0.4257 -0.8119 -0.3996
vn 0.2401 0.9072 -0.3456
vn -0.2436 0.9684 0.0536
vn 0.6995 0.6519 0.2927
vn -0.1095 0.9454 0.3071
vn -0.4562 0.8758 0.1580
vn -0.6746 0.7044 0.2205
vn -0.6353 0.6938 -0.3391
vn 0.3339 0.8030 0.4936
vn -0.1961 0.7994 0.5679
vn -0.4213 0.8137 0.4005
vn -0.3234 0.8636 -0.3867
vn -0.0898 0.9562 0.2787
vn 0.1354 0.7908 0.5969
vn 0.1802 0.7456 0.6415
vn 0.5180 0.7857 -0.3382
vn 0.0955 0.9814 0.1665
vn 0.0344 0.9455 0.3238
vn 0.6260 0.6894 0.3645
vn 0.5102 0.8226 -0.2510
vn -0.1430 -0.9614 0.2349
vn 0.0006 -0.9870 0.1604
vn -0.0924 -0.9885 0.1196
vn 0.1189 -0.9299 0.3481
vn 0.0167 -0.9979 -0.0629
vn 0.0026 -0.9998 0.0181
vn -0.0019 -0.9997 0.0240
vn -0.0085 -0.9982 0.0599
vn 0.3625 -0.8140 0.4539
vn 0.4383 -0.7756 0.4543
vn 0.3301 -0.9385 0.1007
vn -0.0069 -0.9981 0.0608
vn 0.2808 -0.6210 0.7318
vn 0.4766 -0.7133 0.5139
vn 0.4065 -0.8272 -0.3878
vn 0.2250 -0.9481 -0.2248
vn -0.1356 -0.6831 0.7176
vn -0.5683 -0.8035 0.1773
vn -0.4556 -0.7472 -0.4839
vn 0.1937 -0.9386 -0.2856
vn -0.3360 -0.8374 0.4311
vn -0.3938 -0.9190 0.0187
vn -0.0984 -0.9535 -0.2850
vn -0.1304 -0.9691 -0.2094
vn -0.2475 0.0426 0.9680
vn -0.0795 0.0900 0.9928
vn -0.1866 0.0903 0.9783
vn -0.0098 -0.0327 0.9994
vn -0.2662 -0.7457 0.6107
vn -0.1133 -0.5943 0.7962
vn -0.6049 0.0576 0.7942
vn -0.0964 0.1985 0.9753
vn -0.2374 -0.2510 0.9384
vn -0.4068 -0.1208 0.9055
vn -0.8063 0.4125 0.4239
vn -0.0957 0.1138 0.9889
vn -0.2450 0.2556 0.9352
vn -0.5188 0.5221 0.6769
vn -0.7117 0.6334 0.3039
vn -0.0365 0.0643 0.9973
vn -0.0622 0.5642 0.8233
vn -0.7055 0.4827 0.5190
vn -0.5565 0.1808 0.8109
vn -0.0568 0.0025 0.9984
vn 0.4230 0.9026 0.0802
vn -0.4668 0.8477 -0.2520
vn 0.2310 0.9699 -0.0769
vn 0.0286 0.4999 0.8656
vn 0.8556 -0.4495 0.2568
vn 0.9478 -0.1644 0.2732
vn 0.8942 -0.1021 0.4359
vn 0.7861 0.5034 0.3587
vn 0.5963 -0.7725 0.2183
vn 0.2265 -0.9738 0.0187
vn 0.4094 -0.8919 0.1920
vn 0.9322 -0.3603 -0.0337
vn 0.9282 -0.3223 -0.1857
vn 0.9162 -0.4008 -0.0068
vn 0.7497 -0.4013 0.5263
vn 0.9274 -0.3073 0.2136
vn 0.9147 0.3367 -0.2237
vn 0.9501 0.3092 -0.0413
vn 0.7630 0.4321 0.4807
vn 0.9931 -0.0162 0.1165
vn 0.7926 0.4551 -0.4058
vn 0.9763 -0.0285 -0.2144
vn 0.8067 0.1876 0.5603
vn 0.9768 0.0476 0.2086
vn 0.0131 0.7476 -0.6641
vn 0.5477 0.7923 -0.2689
vn 0.5717 0.7618 0.3047
vn -0.0614 0.9909 0.1197
vn 0.3358 -0.6055 -0.7216
vn 0.3096 -0.2054 -0.9284
vn 0.4893 0.0909 -0.8673
vn 0.6111 0.6273 -0.4828
vn 0.2046 -0.9318 -0.2999
vn 0.2729 -0.7710 -0.5754
vn -0.2232 -0.4833 -0.8466
vn -0.0231 -0.5137 -0.8576
vn 0.4210 -0.6587 -0.6236
vn 0.4609 -0.4797 -0.7466
vn -0.2433 -0.2429 -0.9390
vn 0.0292 -0.2495 -0.9679
vn 0.2692 0.0187 -0.9629
vn 0.4016 -0.1906 -0.8958
vn -0.0079 -0.1607 -0.9870
vn 0.0381 0.0018 -0.9993
vn 0.0899 0.2325 -0.9684
vn 0.1752 0.0561 -0.9829
vn 0.0872 -0.1625 -0.9829
vn 0.3254 0.0917 -0.9411
vn 0.0850 0.5443 -0.8346
vn -0.1646 0.2323 -0.9586
vn 0.3115 0.3376 -0.8883
vn 0.6667 0.6070 0.4326
vn -0.8430 -0.1319 -0.5215
vn -0.9287 -0.2136 -0.3030
vn -0.8594 -0.3390 -0.3827
vn -0.7710 0.2373 -0.5910
vn -0.9929 -0.0212 0.1170
vn -0.8825 0.0478 -0.4678
vn -0.9056 -0.4241 -0.0050
vn -0.4260 -0.3846 -0.8189
vn -0.9507 -0.2044 0.2330
vn -0.7844 -0.5391 -0.3067
vn -0.7163 0.4377 -0.5434
vn -0.5506 0.2812 -0.7860
vn -0.8656 0.2706 0.4212
vn -0.9922 0.0817 -0.0940
vn -0.5223 -0.0851 -0.8485
vn -0.9004 -0.4283 -0.0761
vn -0.8507 0.5000 0.1621
vn -0.5343 0.8033 -0.2631
vn -0.4243 0.7150 -0.5557
vn -0.8071 0.5249 0.2702
vn -0.6820 0.7310 0.0200
vn -0.6956 0.4947 -0.5210
vn -0.6713 0.4272 -0.6057
vn -0.6311 0.6162 0.4712
usemtl cloud
s off
f 152/1/1 20/2/1 4/3/1 21/4/1
f 136/5/2 32/6/2 8/7/2 33/8/2
f 120/9/3 44/10/3 6/11/3 45/12/3
f 104/13/4 56/14/4 2/15/4 16/16/4
f 88/17/5 37/18/5 5/19/5 52/20/5
f 72/21/6 17/22/6 2/23/6 56/24/6
f 44/10/7 60/25/7 53/26/7 6/11/7
f 60/25/8 64/27/8 54/28/8 53/26/8
f 64/27/9 68/29/9 55/30/9 54/28/9
f 68/29/10 72/21/10 56/24/10 55/30/10
f 8/7/11 32/31/11 57/32/11 41/33/11
f 41/33/12 57/32/12 58/34/12 42/35/12
f 42/35/13 58/34/13 59/36/13 43/37/13
f 43/37/14 59/36/14 60/25/14 44/10/14
f 32/31/15 31/38/15 61/39/15 57/32/15
f 57/32/16 61/39/16 62/40/16 58/34/16
f 58/34/17 62/40/17 63/41/17 59/36/17
f 59/36/18 63/41/18 64/27/18 60/25/18
f 31/38/19 30/42/19 65/43/19 61/39/19
f 61/39/20 65/43/20 66/44/20 62/40/20
f 62/40/21 66/44/21 67/45/21 63/41/21
f 63/41/22 67/45/22 68/29/22 64/27/22
f 30/42/23 29/46/23 69/47/23 65/43/23
f 65/43/24 69/47/24 70/48/24 66/44/24
f 66/44/25 70/48/25 71/49/25 67/45/25
f 67/45/26 71/49/26 72/21/26 68/29/26
f 29/46/27 4/50/27 20/51/27 69/47/27
f 69/47/28 20/51/28 19/52/28 70/48/28
f 70/48/29 19/52/29 18/53/29 71/49/29
f 71/49/30 18/53/30 17/22/30 72/21/30
f 12/54/31 76/55/31 49/56/31 1/57/31
f 76/55/32 80/58/32 50/59/32 49/56/32
f 80/58/33 84/60/33 51/61/33 50/59/33
f 84/60/34 88/17/34 52/20/34 51/61/34
f 3/62/35 28/63/35 73/64/35 9/65/35
f 9/65/36 73/64/36 74/66/36 10/67/36
f 10/67/37 74/66/37 75/68/37 11/69/37
f 11/69/38 75/68/38 76/55/38 12/54/38
f 28/63/39 27/70/39 77/71/39 73/64/39
f 73/64/40 77/71/40 78/72/40 74/66/40
f 74/66/41 78/72/41 79/73/41 75/68/41
f 75/68/42 79/73/42 80/58/42 76/55/42
f 27/70/43 26/74/43 81/75/43 77/71/43
f 77/71/44 81/75/44 82/76/44 78/72/44
f 78/72/45 82/76/45 83/77/45 79/73/45
f 79/73/46 83/77/46 84/60/46 80/58/46
f 26/74/47 25/78/47 85/79/47 81/75/47
f 81/75/48 85/79/48 86/80/48 82/76/48
f 82/76/49 86/80/49 87/81/49 83/77/49
f 83/77/50 87/81/50 88/17/50 84/60/50
f 25/78/51 7/82/51 40/83/51 85/79/51
f 85/79/52 40/83/52 39/84/52 86/80/52
f 86/80/53 39/84/53 38/85/53 87/81/53
f 87/81/54 38/85/54 37/18/54 88/17/54
f 49/86/55 92/87/55 13/88/55 1/89/55
f 92/87/56 96/90/56 14/91/56 13/88/56
f 96/90/57 100/92/57 15/93/57 14/91/57
f 100/92/58 104/13/58 16/16/58 15/93/58
f 5/19/59 48/94/59 89/95/59 52/96/59
f 52/96/60 89/95/60 90/97/60 51/98/60
f 51/98/61 90/97/61 91/99/61 50/100/61
f 50/100/62 91/99/62 92/87/62 49/86/62
f 48/94/63 47/101/63 93/102/63 89/95/63
f 89/95/64 93/102/64 94/103/64 90/97/64
f 90/97/65 94/103/65 95/104/65 91/99/65
f 91/99/66 95/104/66 96/90/66 92/87/66
f 47/101/67 46/105/67 97/106/67 93/102/67
f 93/102/68 97/106/68 98/107/68 94/103/68
f 94/103/69 98/107/69 99/108/69 95/104/69
f 95/104/70 99/108/70 100/92/70 96/90/70
f 46/105/71 45/12/71 101/109/71 97/106/71
f 97/106/72 101/109/72 102/110/72 98/107/72
f 98/107/73 102/110/73 103/111/73 99/108/73
f 99/108/74 103/111/74 104/13/74 100/92/74
f 45/12/75 6/11/75 53/112/75 101/109/75
f 101/109/76 53/112/76 54/113/76 102/110/76
f 102/110/77 54/113/77 55/114/77 103/111/77
f 103/111/78 55/114/78 56/14/78 104/13/78
f 37/18/79 108/115/79 48/94/79 5/19/79
f 108/115/80 112/116/80 47/101/80 48/94/80
f 112/116/81 116/117/81 46/105/81 47/101/81
f 116/117/82 120/9/82 45/12/82 46/105/82
f 7/82/83 36/118/83 105/119/83 40/83/83
f 40/83/84 105/119/84 106/120/84 39/84/84
f 39/84/85 106/120/85 107/121/85 38/85/85
f 38/85/86 107/121/86 108/115/86 37/18/86
f 36/118/87 35/122/87 109/123/87 105/119/87
f 105/119/88 109/123/88 110/124/88 106/120/88
f 106/120/89 110/124/89 111/125/89 107/121/89
f 107/121/90 111/125/90 112/116/90 108/115/90
f 35/122/91 34/126/91 113/127/91 109/123/91
f 109/123/92 113/127/92 114/128/92 110/124/92
f 110/124/93 114/128/93 115/129/93 111/125/93
f 111/125/94 115/129/94 116/117/94 112/116/94
f 34/126/95 33/8/95 117/130/95 113/127/95
f 113/127/96 117/130/96 118/131/96 114/128/96
f 114/128/97 118/131/97 119/132/97 115/129/97
f 115/129/98 119/132/98 120/9/98 116/117/98
f 33/8/99 8/7/99 41/33/99 117/130/99
f 117/130/100 41/33/100 42/35/100 118/131/100
f 118/131/101 42/35/101 43/37/101 119/132/101
f 119/132/102 43/37/102 44/10/102 120/9/102
f 25/133/103 124/134/103 36/118/103 7/82/103
f 124/134/104 128/135/104 35/122/104 36/118/104
f 128/135/105 132/136/105 34/126/105 35/122/105
f 132/136/106 136/5/106 33/8/106 34/126/106
f 3/137/107 24/138/107 121/139/107 28/140/107
f 28/140/108 121/139/108 122/141/108 27/142/108
f 27/142/109 122/141/109 123/143/109 26/144/109
f 26/144/110 123/143/110 124/134/110 25/133/110
f 24/138/111 23/145/111 125/146/111 121/139/111
f 121/139/112 125/146/112 126/147/112 122/141/112
f 122/141/113 126/147/113 127/148/113 123/143/113
f 123/143/114 127/148/114 128/135/114 124/134/114
f 23/145/115 22/149/115 129/150/115 125/146/115
f 125/146/116 129/150/116 130/151/116 126/147/116
f 126/147/117 130/151/117 131/152/117 127/148/117
f 127/148/118 131/152/118 132/136/118 128/135/118
f 22/149/119 21/4/119 133/153/119 129/150/119
f 129/150/120 133/153/120 134/154/120 130/151/120
f 130/151/121 134/154/121 135/155/121 131/152/121
f 131/152/122 135/155/122 136/5/122 132/136/122
f 21/4/123 4/3/123 29/156/123 133/153/123
f 133/153/124 29/156/124 30/157/124 134/154/124
f 134/154/125 30/157/125 31/158/125 135/155/125
f 135/155/126 31/158/126 32/6/126 136/5/126
f 9/159/127 140/160/127 24/138/127 3/137/127
f 140/160/128 144/161/128 23/145/128 24/138/128
f 144/161/129 148/162/129 22/149/129 23/145/129
f 148/162/130 152/1/130 21/4/130 22/149/130
f 1/163/131 13/164/131 137/165/131 12/166/131
f 12/166/132 137/165/132 138/167/132 11/168/132
f 11/168/133 138/167/133 139/169/133 10/170/133
f 10/170/134 139/169/134 140/160/134 9/159/134
f 13/164/135 14/171/135 141/172/135 137/165/135
f 137/165/136 141/172/136 142/173/136 138/167/136
f 138/167/137 142/173/137 143/174/137 139/169/137
f 139/169/138 143/174/138 144/161/138 140/160/138
f 14/171/139 15/175/139 145/176/139 141/172/139
f 141/172/140 145/176/140 146/177/140 142/173/140
f 142/173/141 146/177/141 147/178/141 143/174/141
f 143/174/142 147/178/142 148/162/142 144/161/142
f 15/175/143 16/179/143 149/180/143 145/176/143
f 145/176/144 149/180/144 150/181/144 146/177/144
f 146/177/145 150/181/145 151/182/145 147/178/145
f 147/178/146 151/182/146 152/1/146 148/162/146
f 16/179/147 2/183/147 17/184/147 149/180/147
f 149/180/148 17/184/148 18/185/148 150/181/148
f 150/181/149 18/185/149 19/186/149 151/182/149
f 151/182/150 19/186/150 20/2/150 152/1/150
